PathFileType	4	(X/Y/Z)	C:/Users/opensim2020/Desktop/walking_exp_matlab/subject06_walking21_straight_03.trc																																																																																																																																		
DataRate	CameraRate	NumFrames	NumMarkers	Units	OrigDataRate	OrigDataStartFrame	OrigNumFrames																																																																																																																														
100	100	8	44	mm	100	1779	110																																																																																																																														
Frame#	Time	LFHD			RFHD			LBHD			RBHD			C7			T10			CLAV			STRN			RBAK			LSHO			LUPA			LELB			LFRM			LWRA			LWRB			LFIN			RSHO			RUPA			RELB			RFRM			RWRA			RWRB			RFIN			LASI			RASI			LPSI			RPSI			LTHI			LKNE			LTIB			LANK			LHEE			LTOE			RTHI			RKNE			RTIB			RANK			RHEE			RTOE			*39			*40			*41			*42			*43		
		X1	Y1	Z1	X2	Y2	Z2	X3	Y3	Z3	X4	Y4	Z4	X5	Y5	Z5	X6	Y6	Z6	X7	Y7	Z7	X8	Y8	Z8	X9	Y9	Z9	X10	Y10	Z10	X11	Y11	Z11	X12	Y12	Z12	X13	Y13	Z13	X14	Y14	Z14	X15	Y15	Z15	X16	Y16	Z16	X17	Y17	Z17	X18	Y18	Z18	X19	Y19	Z19	X20	Y20	Z20	X21	Y21	Z21	X22	Y22	Z22	X23	Y23	Z23	X24	Y24	Z24	X25	Y25	Z25	X26	Y26	Z26	X27	Y27	Z27	X28	Y28	Z28	X29	Y29	Z29	X30	Y30	Z30	X31	Y31	Z31	X32	Y32	Z32	X33	Y33	Z33	X34	Y34	Z34	X35	Y35	Z35	X36	Y36	Z36	X37	Y37	Z37	X38	Y38	Z38	X39	Y39	Z39	X40	Y40	Z40	X41	Y41	Z41	X42	Y42	Z42	X43	Y43	Z43	X44	Y44	Z44
																																																																																																																																					
14	0.13	-639.57648	1666.58569	-1083.55432	-644.57178	1650.36023	-953.72693	-772.99945	1610.91553	-1091.70789	-775.46179	1600.24902	-962.18628	-773.89923	1452.974	-1031.66931	-823.28632	1128.3114	-1018.01215	-666.77954	1371.26074	-1035.91504	-634.48541	1193.93103	-1042.0686	-849.33429	1287.37549	-948.3739	-733.23425	1406.40198	-1193.08069	-747.50122	1204.90613	-1260.97449	-752.32172	1092.14587	-1271.26709	-696.36102	953.35388	-1296.56873	-597.25281	867.22583	-1264.76978	-658.80029	839.54364	-1289.61108	-591.93726	779.20789	-1299.51538	-705.33905	1408.74951	-873.89325	-753.05023	1216.32568	-780.08698	-754.15784	1094.78345	-764.9245	-736.43146	976.40668	-746.34576	-672.86212	838.72772	-779.73474	-725.26465	839.81757	-736.38794	-688.9306	763.13641	-738.03284	-667.71918	956.48578	-1136.04883	-650.85272	965.64294	-917.73169	-821.17218	990.26514	-1097.16699	-801.10681	997.90771	-930.36029	-699.93146	645.50568	-1203.13684	-658.61871	487.18524	-1193.73767	-826.61548	308.59811	-1177.78235	-938.41858	179.7643	-1135.92285	-972.59192	188.21008	-1083.86365	-849.34192	68.2919	-1156.99744	-696.78021	629.65491	-874.74744	-690.69122	506.65073	-910.31342	-759.02173	245.94785	-918.47736	-799.74481	66.87375	-972.72693	-847.52185	44.66405	-1012.79077	-650.24121	32.34467	-991.74933	-743.20386	1701.53162	-1027.66772	NaN	NaN	NaN	NaN	NaN	NaN	NaN	NaN	NaN	NaN	NaN	NaN
15	0.14	-626.43781	1666.24695	-1083.94519	-631.01147	1650.12866	-954.21643	-760.10004	1610.93604	-1091.56323	-762.09241	1600.396	-962.05511	-761.19629	1452.91296	-1031.59265	-810.90869	1128.25256	-1018.16876	-654.2135	1371.10486	-1036.05737	-622.1181	1193.79053	-1042.073	-836.49365	1287.41211	-948.02783	-720.7431	1406.20801	-1193.2323	-737.1911	1204.61682	-1261.12659	-743.52594	1091.62341	-1270.84216	-692.63074	950.83801	-1296.52039	-596.5744	860.63153	-1265.55322	-659.50336	835.68585	-1289.96143	-595.24182	772.72754	-1300.65417	-692.24384	1408.71204	-873.95508	-738.80823	1216.04004	-779.86108	-739.01379	1094.64697	-764.8739	-718.50891	976.76794	-746.56079	-651.21155	841.20422	-780.52582	-703.45422	840.95959	-736.72113	-664.76007	765.08936	-739.03473	-654.52063	956.99976	-1135.67029	-639.09277	965.12854	-917.73431	-808.35663	990.49402	-1097.94238	-789.39673	997.59619	-930.90753	-680.55347	646.98993	-1202.91028	-635.4538	490.00449	-1192.61536	-796.73871	304.7352	-1177.40747	-902.48883	170.51913	-1136.0946	-937.23486	177.02634	-1083.99133	-807.10443	64.89678	-1158.08228	-689.29993	628.79993	-875.22522	-685.36139	505.60645	-909.83405	-756.85748	245.75829	-918.13562	-799.50549	66.98489	-972.73645	-847.39459	45.03798	-1012.85315	-650.09509	32.08918	-991.34662	-729.85712	1701.47668	-1027.67969	NaN	NaN	NaN	NaN	NaN	NaN	NaN	NaN	NaN	NaN	NaN	NaN
16	0.15	-614.04993	1665.84009	-1085.15686	-617.51416	1649.7323	-954.55542	-747.16431	1610.77844	-1091.45923	-748.74231	1600.33838	-961.94043	-748.39215	1452.77051	-1031.5426	-798.37781	1127.96875	-1018.27386	-641.50037	1370.76538	-1036.23059	-609.62805	1193.48914	-1042.07104	-823.66809	1287.25928	-947.63104	-708.30804	1405.59399	-1193.45728	-726.81567	1204.05591	-1260.9552	-734.51196	1091.09644	-1270.6123	-688.92029	948.4646	-1296.78027	-596.21094	854.22052	-1266.26196	-660.35516	832.12958	-1290.53979	-598.76849	766.62701	-1301.7959	-679.14575	1408.52246	-874.06671	-724.6947	1215.65796	-779.78735	-724.1452	1094.42957	-764.86395	-700.68555	977.13391	-746.84399	-629.07971	843.88727	-781.32397	-681.29456	842.02673	-737.43787	-640.25427	767.35461	-740.01898	-641.3653	957.30896	-1135.28662	-627.34711	964.49652	-917.61505	-795.46655	990.48126	-1098.74719	-777.77356	997.22504	-931.46234	-661.77222	648.5647	-1203.11267	-612.8761	492.77487	-1191.45508	-766.53516	300.32791	-1177	-865.43286	160.73401	-1136.40784	-900.81055	165.24908	-1083.96582	-765.83972	60.43833	-1158.08496	-681.67352	628.17047	-875.3681	-679.86835	504.60025	-909.41138	-754.73645	245.58531	-918.01758	-799.23389	67.19334	-972.77246	-847.26007	45.54759	-1012.94672	-649.83972	31.89626	-991.24652	-716.4715	1701.21155	-1027.78247	NaN	NaN	NaN	NaN	NaN	NaN	NaN	NaN	NaN	NaN	NaN	NaN
17	0.16	-600.65363	1664.96777	-1085.10315	-604.05896	1649.14624	-954.94086	-734.25562	1610.30688	-1091.32886	-735.40253	1599.96143	-961.82635	-735.47815	1452.28601	-1031.5155	-785.8349	1127.57361	-1018.34796	-628.76923	1370.31006	-1036.3927	-597.0871	1193.00647	-1042.14038	-810.78491	1286.90076	-947.2522	-695.88745	1404.9502	-1193.55603	-716.47888	1203.51868	-1261.38428	-725.37646	1090.5592	-1270.62439	-684.99164	946.28571	-1297.06677	-596.11292	848.05219	-1266.87952	-661.32483	828.85809	-1291.27649	-602.50354	760.91937	-1302.86902	-666.11316	1408.15088	-874.18945	-710.98492	1215.13684	-779.83569	-709.52948	1094.07703	-764.93781	-682.96448	977.4765	-747.18597	-606.93555	846.8089	-782.17706	-659.29791	843.22284	-738.46924	-615.8833	769.95685	-740.97797	-628.04895	957.44781	-1134.86206	-615.69818	963.64508	-917.46759	-782.52795	990.23254	-1099.56665	-765.953	996.64368	-932.18298	-643.00214	649.99359	-1202.97205	-590.92224	495.37509	-1190.36377	-736.10022	295.52255	-1176.54248	-827.93768	150.88141	-1136.33826	-864.24286	153.68457	-1083.41003	-722.63672	56.86848	-1158.27832	-673.94958	627.40063	-875.75385	-674.28955	503.55005	-908.72229	-752.64001	245.40001	-917.91339	-798.91608	67.50855	-972.88269	-847.13574	46.17109	-1013.15295	-649.67517	31.72505	-991.02014	-703.12683	1700.81494	-1027.80664	NaN	NaN	NaN	NaN	NaN	NaN	NaN	NaN	NaN	NaN	NaN	NaN
18	0.17	-587.87634	1664.29102	-1085.83936	-590.67249	1648.40686	-955.25604	-721.20099	1609.6145	-1091.39587	-721.9881	1599.34717	-961.84613	-722.57587	1451.65808	-1031.56152	-773.18274	1126.9082	-1018.44153	-615.94525	1369.50928	-1036.56213	-584.36035	1192.30188	-1042.04883	-797.96533	1286.35791	-946.8479	-683.37091	1404.21472	-1193.76599	-706.16772	1202.82263	-1261.43921	-716.17059	1089.94519	-1270.7699	-680.95593	944.34308	-1297.43066	-596.72449	841.87317	-1267.35852	-662.27496	826.09772	-1292.01782	-606.37903	755.57544	-1303.84912	-653.13013	1407.58093	-874.31055	-697.37897	1214.50427	-779.96381	-695.03705	1093.57825	-765.03882	-665.29004	977.84332	-747.60889	-584.7865	850.13226	-782.97235	-637.19196	844.5144	-739.73468	-591.17944	772.9137	-742.12616	-614.85449	957.22241	-1134.44617	-604.36035	962.88013	-916.69012	-769.5722	989.78339	-1100.47034	-753.86621	995.8172	-933.09625	-624.97809	651.44672	-1203.36584	-569.59741	497.73495	-1189.32996	-705.19012	290.37161	-1175.91895	-789.54419	140.86075	-1136.14355	-825.3974	141.02789	-1083.7207	-678.87952	53.49718	-1158.17212	-666.24542	626.45068	-876.3316	-668.61957	502.41043	-908.75171	-750.59741	245.33199	-917.93427	-798.6571	67.94185	-973.13605	-846.84009	46.87984	-1013.56409	-649.62567	31.46984	-990.53607	-689.80743	1700.07532	-1027.97791	NaN	NaN	NaN	NaN	NaN	NaN	NaN	NaN	NaN	NaN	NaN	NaN
19	0.18	-574.71014	1663.36035	-1086.28943	-577.23718	1647.49731	-955.68152	-708.12219	1608.72571	-1091.47412	-708.57941	1598.52393	-961.93042	-709.57092	1450.80371	-1031.68115	-760.64551	1126.19006	-1018.53461	-603.05334	1368.6062	-1036.71814	-571.66486	1191.33972	-1042.07458	-785.03473	1285.63464	-946.50293	-670.6922	1403.05066	-1193.9574	-694.99976	1201.9707	-1261.35022	-706.80023	1089.26965	-1270.93457	-676.73877	942.51416	-1297.95654	-596.8103	836.42834	-1267.97974	-663.00983	823.57129	-1292.94702	-610.2287	750.70148	-1304.74414	-640.09509	1406.85583	-874.42438	-684.10657	1213.77368	-780.10913	-680.68903	1092.95557	-765.18201	-647.64496	978.21405	-748.14484	-562.65424	853.66034	-783.78345	-614.76752	845.64569	-741.61786	-566.74036	776.24353	-743.25623	-601.52203	956.76654	-1134.06189	-592.96985	961.70746	-916.86346	-756.60803	989.09937	-1101.38391	-742.25305	995.06055	-933.70197	-606.76416	652.08081	-1203.9082	-548.99121	499.83261	-1188.38721	-674.62103	285.03012	-1175.46204	-750.29602	130.77612	-1136.01123	-786.44073	128.8208	-1083.53967	-633.48022	51.35917	-1158.36792	-658.33972	625.56989	-876.83569	-662.78455	501.33374	-908.42139	-748.35229	245.26813	-918.20331	-798.23926	68.40714	-973.44379	-846.58374	47.58311	-1014.10205	-649.3418	31.31374	-990.47076	-676.47314	1699.31921	-1028.1687	NaN	NaN	NaN	NaN	NaN	NaN	NaN	NaN	NaN	NaN	NaN	NaN
20	0.19	-561.66522	1662.19067	-1086.78687	-563.79358	1646.375	-956.09167	-694.56445	1607.94604	-1091.01196	-695.2782	1597.56665	-962.03003	-696.45221	1449.78845	-1031.84167	-747.89093	1125.27698	-1018.62073	-590.02362	1367.48718	-1036.94092	-558.90521	1190.21008	-1042.10693	-772.0545	1284.7301	-946.28613	-657.7088	1402.12524	-1194.11816	-684.16541	1200.93298	-1261.40088	-697.30011	1088.44067	-1271.22791	-672.77826	940.75378	-1298.78809	-596.66705	831.52631	-1268.67981	-663.4325	821.32031	-1293.85022	-614.04028	746.26392	-1305.68018	-627.04315	1405.94592	-874.5528	-670.95148	1212.87524	-780.28546	-666.35468	1092.21655	-765.32324	-630.01379	978.66101	-748.71735	-540.31281	857.74084	-784.61865	-592.771	847.24384	-743.11383	-542.07953	779.89294	-744.60229	-588.11212	956.08575	-1133.76465	-580.67615	960.54578	-916.38202	-743.50049	988.21179	-1102.2887	-730.2605	994.0105	-934.57837	-590.47797	652.9165	-1204.06213	-529.073	501.61786	-1187.57654	-643.83142	279.55093	-1175.02271	-710.3399	120.95256	-1135.80676	-746.50391	116.828	-1083.53198	-589.80768	48.18653	-1157.21973	-650.11127	624.43396	-877.25677	-656.85938	500.0975	-908.73035	-746.06879	245.20837	-918.65686	-797.89166	68.92502	-973.91168	-846.22687	48.50046	-1014.77222	-649.16608	31.27994	-990.38495	-663.13922	1698.20386	-1028.3606	NaN	NaN	NaN	NaN	NaN	NaN	NaN	NaN	NaN	NaN	NaN	NaN
21	0.2	-548.28955	1660.9115	-1087.18689	-550.41113	1645.13647	-956.5177	-681.39166	1606.55505	-1091.34326	-681.86963	1596.38086	-962.2724	-683.25763	1448.59998	-1032.02136	-735.11951	1124.20239	-1018.79034	-576.94373	1366.17688	-1037.04309	-545.95587	1188.98254	-1042.00928	-759.14526	1283.6864	-946.12103	-644.71295	1400.49353	-1194.37097	-672.99945	1199.7052	-1261.64648	-687.89417	1087.57617	-1271.42188	-668.27661	939.20203	-1299.4165	-597.00018	826.65283	-1269.39966	-663.81732	819.55969	-1295.03906	-617.70752	742.25659	-1306.6156	-613.95013	1404.87927	-874.69977	-657.76996	1211.7998	-780.51123	-652.03314	1091.33777	-765.47375	-612.38312	979.09393	-749.27655	-518.42303	861.80585	-785.5799	-570.71814	849.03308	-744.76013	-517.52179	783.79871	-746.12683	-574.64874	955.20294	-1133.60449	-568.74066	958.93176	-916.11273	-730.38959	987.08984	-1103.2196	-717.94128	992.6767	-935.60138	-571.36737	654.37	-1204.5813	-509.88065	502.94138	-1186.88904	-613.11469	273.99109	-1174.729	-669.5329	111.42233	-1135.552	-705.34418	104.89986	-1083.40552	-544.64441	46.3755	-1156.20386	-642.07605	623.24518	-877.87213	-650.81476	498.92847	-908.927	-743.7511	245.15758	-919.18555	-797.50018	69.38366	-974.73413	-845.98688	49.52738	-1015.45215	-649.08917	31.15309	-990.25958	-649.82806	1696.86841	-1028.66479	NaN	NaN	NaN	NaN	NaN	NaN	NaN	NaN	NaN	NaN	NaN	NaN
